<svg xmlns="http://www.w3.org/2000/svg" viewBox="0 0 215.71 67.88"><defs><style>.cls-1{fill:#e76c01;}</style></defs><title>Asset 3</title><g id="Layer_2" data-name="Layer 2"><g id="图层_1" data-name="图层 1"><path class="cls-1" d="M79.42,47.89h.68v7.35h-.68Z"/><path class="cls-1" d="M82.12,47.89H83l4.47,6.44h0V47.89h.68v7.35H87.3L82.82,48.8h0v6.44h-.68Z"/><path class="cls-1" d="M90.39,53.88a1.72,1.72,0,0,0,.7.69,2,2,0,0,0,1,.23,2,2,0,0,0,.65-.1,1.75,1.75,0,0,0,.52-.29,1.37,1.37,0,0,0,.35-.45,1.32,1.32,0,0,0,.13-.6,1.09,1.09,0,0,0-.16-.63,1.13,1.13,0,0,0-.43-.41,3.32,3.32,0,0,0-.6-.28l-.7-.23a5.89,5.89,0,0,1-.7-.26,2.1,2.1,0,0,1-.6-.38,1.57,1.57,0,0,1-.43-.58,2.08,2.08,0,0,1-.17-.87,1.86,1.86,0,0,1,.2-.87,1.68,1.68,0,0,1,.52-.63,2.23,2.23,0,0,1,.75-.39,2.9,2.9,0,0,1,.89-.13,3,3,0,0,1,1.12.21,2.09,2.09,0,0,1,.88.72l-.59.42a1.65,1.65,0,0,0-1.43-.73,2.18,2.18,0,0,0-.63.09,1.75,1.75,0,0,0-.53.26,1.23,1.23,0,0,0-.49,1,1.17,1.17,0,0,0,.28.84,2.05,2.05,0,0,0,.7.47c.28.11.59.21.91.3a4.39,4.39,0,0,1,.92.35,2,2,0,0,1,.7.6,1.8,1.8,0,0,1,.28,1.08,2,2,0,0,1-.69,1.53,2.16,2.16,0,0,1-.73.4,2.82,2.82,0,0,1-.87.13,3.39,3.39,0,0,1-1.33-.25,2.39,2.39,0,0,1-1.05-.86Z"/><path class="cls-1" d="M97.6,48.51H95.08v-.62h5.71v.62H98.28v6.73H97.6Z"/><path class="cls-1" d="M101.92,47.89h.69v7.35h-.69Z"/><path class="cls-1" d="M106.25,48.51h-2.51v-.62h5.71v.62h-2.51v6.73h-.69Z"/><path class="cls-1" d="M115.8,52.42a4.69,4.69,0,0,1-.13,1.14,2.53,2.53,0,0,1-.45.95,2.3,2.3,0,0,1-.83.67,3.45,3.45,0,0,1-2.53,0,2.39,2.39,0,0,1-.83-.67,2.53,2.53,0,0,1-.45-.95,4.69,4.69,0,0,1-.13-1.14V47.89h.68v4.36a5.16,5.16,0,0,0,.08.84,2.4,2.4,0,0,0,.28.83,1.65,1.65,0,0,0,.6.63,1.88,1.88,0,0,0,1,.25,1.85,1.85,0,0,0,1-.25,1.65,1.65,0,0,0,.6-.63,2.64,2.64,0,0,0,.29-.83,5.09,5.09,0,0,0,.07-.84V47.89h.68Z"/><path class="cls-1" d="M119.31,48.51H116.8v-.62h5.71v.62H120v6.73h-.69Z"/><path class="cls-1" d="M123.64,47.89h4.5v.62h-3.81v2.62h3.57v.62h-3.57v2.87h4v.62h-4.66Z"/><path class="cls-1" d="M132,51.56A4.06,4.06,0,0,1,132.3,50a3.75,3.75,0,0,1,.78-1.22,3.48,3.48,0,0,1,1.2-.81,4.23,4.23,0,0,1,3.08,0,3.48,3.48,0,0,1,1.2.81,3.75,3.75,0,0,1,.78,1.22,4.06,4.06,0,0,1,.28,1.54,4.2,4.2,0,0,1-.28,1.56,3.75,3.75,0,0,1-.78,1.22,3.46,3.46,0,0,1-1.2.8,4.38,4.38,0,0,1-3.08,0,3.46,3.46,0,0,1-1.2-.8,3.75,3.75,0,0,1-.78-1.22A4.2,4.2,0,0,1,132,51.56Zm.69,0a3.78,3.78,0,0,0,.21,1.28,3.17,3.17,0,0,0,.63,1,2.74,2.74,0,0,0,1,.68,3.45,3.45,0,0,0,2.58,0,2.74,2.74,0,0,0,1-.68,3.17,3.17,0,0,0,.63-1,4,4,0,0,0,0-2.55,3.07,3.07,0,0,0-.63-1,2.89,2.89,0,0,0-1-.69,3.45,3.45,0,0,0-2.58,0,2.89,2.89,0,0,0-1,.69,3.07,3.07,0,0,0-.63,1A3.76,3.76,0,0,0,132.71,51.56Z"/><path class="cls-1" d="M141.16,47.89h4.4v.62h-3.72v2.62h3.46v.62h-3.46v3.49h-.68Z"/><path class="cls-1" d="M149.63,47.89h2.11a3.86,3.86,0,0,1,.81.09,2.25,2.25,0,0,1,.77.3,1.71,1.71,0,0,1,.79,1.55,1.91,1.91,0,0,1-.18.86,1.69,1.69,0,0,1-.49.6,2.3,2.3,0,0,1-.7.35,3.34,3.34,0,0,1-.84.11h-1.59v3.49h-.68Zm.68,3.24h1.56a2.78,2.78,0,0,0,.57-.07,1.62,1.62,0,0,0,.5-.22,1.14,1.14,0,0,0,.35-.4,1.25,1.25,0,0,0,.14-.61,1.21,1.21,0,0,0-.14-.6,1.23,1.23,0,0,0-.37-.41,1.5,1.5,0,0,0-.51-.24,2.87,2.87,0,0,0-.58-.07h-1.52Z"/><path class="cls-1" d="M157.08,47.89h.71l3.09,7.35h-.77l-.8-2h-3.89l-.83,2h-.72Zm.32.75-1.71,4h3.37Z"/><path class="cls-1" d="M161.94,47.89h2.32l.54.06a3.63,3.63,0,0,1,.6.17,1.51,1.51,0,0,1,.54.33,1.61,1.61,0,0,1,.39.55,2,2,0,0,1,.16.81,1.75,1.75,0,0,1-.19.87,1.79,1.79,0,0,1-.45.56,2.07,2.07,0,0,1-.61.31,4.08,4.08,0,0,1-.63.15l2.14,3.53H166l-2.07-3.49h-1.28v3.49h-.68Zm.68,3.24h1.46A2.33,2.33,0,0,0,165,51a1.5,1.5,0,0,0,.53-.33,1,1,0,0,0,.25-.43,1.31,1.31,0,0,0,.07-.41,1.36,1.36,0,0,0-.07-.42,1,1,0,0,0-.25-.42,1.5,1.5,0,0,0-.53-.33,2.33,2.33,0,0,0-.87-.14h-1.46Z"/><path class="cls-1" d="M170.35,47.89h.7l3.1,7.35h-.77l-.8-2h-3.89l-.83,2h-.72Zm.32.75-1.71,4h3.37Z"/><path class="cls-1" d="M175.21,47.89h.68v6.73h3.43v.62h-4.11Z"/><path class="cls-1" d="M180.4,47.89h.68v6.73h3.43v.62H180.4Z"/><path class="cls-1" d="M185.59,47.89h4.49v.62h-3.81v2.62h3.57v.62h-3.57v2.87h4v.62h-4.66Z"/><path class="cls-1" d="M191.74,47.89h.69v6.73h3.43v.62h-4.12Z"/><path class="cls-1" d="M81.67,60.35h.71l3.09,7.35H84.7l-.8-2H80l-.83,2h-.72Zm.32.74-1.71,4h3.37Z"/><path class="cls-1" d="M86.53,60.35h.88l4.48,6.43h0V60.35h.68V67.7h-.88l-4.47-6.44h0V67.7h-.69Z"/><path class="cls-1" d="M94.51,60.35h2.28a4.87,4.87,0,0,1,1.62.23,3.3,3.3,0,0,1,1.1.6,2.9,2.9,0,0,1,.7.8,3.85,3.85,0,0,1,.37.85,3.8,3.8,0,0,1,.15.73c0,.22,0,.37,0,.46s0,.24,0,.46a3.8,3.8,0,0,1-.15.73,3.85,3.85,0,0,1-.37.85,3.09,3.09,0,0,1-.7.81,3.48,3.48,0,0,1-1.1.59,4.85,4.85,0,0,1-1.62.24H94.51Zm.69,6.72h1.41A5,5,0,0,0,98,66.89a3.09,3.09,0,0,0,1.1-.56,2.56,2.56,0,0,0,.74-.94,3.22,3.22,0,0,0,.27-1.37,3.14,3.14,0,0,0-.27-1.36,2.63,2.63,0,0,0-.74-1,3.25,3.25,0,0,0-1.1-.55A5,5,0,0,0,96.61,61H95.2Z"/><path class="cls-1" d="M104.9,60.35h2.28a4.87,4.87,0,0,1,1.62.23,3.3,3.3,0,0,1,1.1.6,2.9,2.9,0,0,1,.7.8,3.85,3.85,0,0,1,.37.85,3.8,3.8,0,0,1,.15.73c0,.22,0,.37,0,.46s0,.24,0,.46a3.8,3.8,0,0,1-.15.73,3.85,3.85,0,0,1-.37.85,3.09,3.09,0,0,1-.7.81,3.48,3.48,0,0,1-1.1.59,4.85,4.85,0,0,1-1.62.24H104.9Zm.69,6.72H107a4.92,4.92,0,0,0,1.36-.18,3.09,3.09,0,0,0,1.1-.56,2.56,2.56,0,0,0,.74-.94,3.22,3.22,0,0,0,.27-1.37,3.14,3.14,0,0,0-.27-1.36,2.63,2.63,0,0,0-.74-1,3.25,3.25,0,0,0-1.1-.55A4.92,4.92,0,0,0,107,61h-1.41Z"/><path class="cls-1" d="M112.69,60.35h.69V67.7h-.69Z"/><path class="cls-1" d="M115.59,66.33a1.69,1.69,0,0,0,.7.7,2.06,2.06,0,0,0,1,.23,2.2,2.2,0,0,0,.64-.1,1.8,1.8,0,0,0,.53-.29,1.6,1.6,0,0,0,.35-.46,1.25,1.25,0,0,0,.13-.59,1.24,1.24,0,0,0-.16-.64,1.41,1.41,0,0,0-.43-.41,3.41,3.41,0,0,0-.61-.27l-.7-.23c-.23-.08-.47-.16-.69-.26a2.24,2.24,0,0,1-.61-.38,1.64,1.64,0,0,1-.43-.59,2,2,0,0,1-.16-.87,1.84,1.84,0,0,1,.19-.86,1.81,1.81,0,0,1,.52-.64,2.21,2.21,0,0,1,.75-.38,3,3,0,0,1,.9-.13,2.89,2.89,0,0,1,1.11.21,2.15,2.15,0,0,1,.89.71l-.59.43a1.62,1.62,0,0,0-1.43-.73,2.2,2.2,0,0,0-.64.09,1.5,1.5,0,0,0-.52.26,1.26,1.26,0,0,0-.36.43,1.31,1.31,0,0,0-.13.61,1.18,1.18,0,0,0,.28.85,2,2,0,0,0,.7.47,8.83,8.83,0,0,0,.91.3,4.28,4.28,0,0,1,.91.34,2,2,0,0,1,.7.61,1.8,1.8,0,0,1,.28,1.08,2.07,2.07,0,0,1-.18.88,2.16,2.16,0,0,1-.51.65,2.24,2.24,0,0,1-.73.4,2.76,2.76,0,0,1-.86.13,3.47,3.47,0,0,1-1.34-.25,2.46,2.46,0,0,1-1-.86Z"/><path class="cls-1" d="M122.79,61h-2.51v-.62H126V61h-2.51V67.7h-.69Z"/><path class="cls-1" d="M127.12,60.35h2.32a2.8,2.8,0,0,1,.55.06,3.47,3.47,0,0,1,.59.16,1.7,1.7,0,0,1,.54.34,1.52,1.52,0,0,1,.39.55,2,2,0,0,1,.16.81,1.87,1.87,0,0,1-.18.87,1.81,1.81,0,0,1-1.07.87,4.08,4.08,0,0,1-.63.15l2.14,3.53h-.78l-2.07-3.49h-1.27V67.7h-.69Zm.69,3.23h1.45a2.44,2.44,0,0,0,.88-.13,1.55,1.55,0,0,0,.52-.33,1.05,1.05,0,0,0,.25-.43,1.27,1.27,0,0,0,0-.83,1,1,0,0,0-.25-.42,1.42,1.42,0,0,0-.52-.34,2.44,2.44,0,0,0-.88-.13h-1.45Z"/><path class="cls-1" d="M133.28,60.35H134V67.7h-.68Z"/><path class="cls-1" d="M136,60.35h2.11a5.93,5.93,0,0,1,.84.06,2.15,2.15,0,0,1,.77.28,1.65,1.65,0,0,1,.55.59,2.11,2.11,0,0,1,.21,1,1.5,1.5,0,0,1-.33,1,1.61,1.61,0,0,1-1,.55v0a2.06,2.06,0,0,1,.67.17,1.62,1.62,0,0,1,.51.38,1.55,1.55,0,0,1,.34.55,2,2,0,0,1,.12.71,2,2,0,0,1-.24,1,1.84,1.84,0,0,1-.61.63,2.38,2.38,0,0,1-.8.31,4,4,0,0,1-.81.09H136Zm.68,3.17h1.42a2.29,2.29,0,0,0,.86-.13,1.35,1.35,0,0,0,.52-.31.92.92,0,0,0,.25-.4,1.61,1.61,0,0,0,.07-.39,1.48,1.48,0,0,0-.13-.64,1.18,1.18,0,0,0-.35-.41,1.45,1.45,0,0,0-.51-.21,3.08,3.08,0,0,0-.61-.06h-1.52Zm0,3.55h1.57a2.89,2.89,0,0,0,1-.14,1.48,1.48,0,0,0,.56-.37,1.1,1.1,0,0,0,.27-.46,1.9,1.9,0,0,0,.07-.44,1.54,1.54,0,0,0-.16-.7,1.41,1.41,0,0,0-.4-.47,1.64,1.64,0,0,0-.57-.26,2.3,2.3,0,0,0-.64-.09h-1.67Z"/><path class="cls-1" d="M147.74,64.88A4.6,4.6,0,0,1,147.6,66a2.65,2.65,0,0,1-.45,1,2.27,2.27,0,0,1-.83.66,3.3,3.3,0,0,1-2.52,0A2.19,2.19,0,0,1,143,67a2.65,2.65,0,0,1-.45-1,4.6,4.6,0,0,1-.14-1.13V60.35h.69V64.7a5.12,5.12,0,0,0,.07.85,2.71,2.71,0,0,0,.28.83A1.93,1.93,0,0,0,144,67a2.25,2.25,0,0,0,2.06,0,1.8,1.8,0,0,0,.6-.63,2.49,2.49,0,0,0,.29-.83,5.12,5.12,0,0,0,.07-.85V60.35h.69Z"/><path class="cls-1" d="M151.25,61h-2.52v-.62h5.71V61h-2.51V67.7h-.68Z"/><path class="cls-1" d="M155.57,60.35h4.5V61h-3.81v2.61h3.57v.63h-3.57v2.86h4v.63h-4.67Z"/><path class="cls-1" d="M161.64,60.35h2.27a4.79,4.79,0,0,1,1.62.23,3.46,3.46,0,0,1,1.11.6,3,3,0,0,1,.69.8,3.91,3.91,0,0,1,.38.85,4.75,4.75,0,0,1,.15.73c0,.22,0,.37,0,.46s0,.24,0,.46a4.75,4.75,0,0,1-.15.73,3.91,3.91,0,0,1-.38.85,3.24,3.24,0,0,1-.69.81,3.65,3.65,0,0,1-1.11.59,4.77,4.77,0,0,1-1.62.24h-2.27Zm.68,6.72h1.42a4.89,4.89,0,0,0,1.35-.18,3,3,0,0,0,1.1-.56,2.46,2.46,0,0,0,.74-.94A3.22,3.22,0,0,0,167.2,64a3.14,3.14,0,0,0-.27-1.36,2.53,2.53,0,0,0-.74-1,3.16,3.16,0,0,0-1.1-.55,4.89,4.89,0,0,0-1.35-.18h-1.42Z"/><path class="cls-1" d="M172.32,66.33a1.69,1.69,0,0,0,.7.7,2.08,2.08,0,0,0,1,.23,2.32,2.32,0,0,0,.65-.1,1.75,1.75,0,0,0,.52-.29,1.31,1.31,0,0,0,.35-.46,1.25,1.25,0,0,0,.13-.59,1.15,1.15,0,0,0-.16-.64,1.41,1.41,0,0,0-.43-.41,3.12,3.12,0,0,0-.61-.27l-.69-.23c-.24-.08-.47-.16-.7-.26a2.59,2.59,0,0,1-.61-.38A1.77,1.77,0,0,1,172,63a2.18,2.18,0,0,1-.16-.87,1.85,1.85,0,0,1,.2-.86,1.79,1.79,0,0,1,.51-.64,2.17,2.17,0,0,1,.76-.38,2.9,2.9,0,0,1,.89-.13,3,3,0,0,1,1.12.21,2.12,2.12,0,0,1,.88.71l-.59.43A1.68,1.68,0,0,0,175,61a1.74,1.74,0,0,0-.82-.18,2.18,2.18,0,0,0-.63.09,1.46,1.46,0,0,0-.53.26,1.26,1.26,0,0,0-.36.43,1.31,1.31,0,0,0-.13.61,1.18,1.18,0,0,0,.28.85,2.05,2.05,0,0,0,.7.47,8.83,8.83,0,0,0,.91.3,4.37,4.37,0,0,1,.92.34,2,2,0,0,1,.7.61,1.87,1.87,0,0,1,.28,1.08,1.93,1.93,0,0,1-.19.88,2,2,0,0,1-.5.65,2.35,2.35,0,0,1-.73.4,2.82,2.82,0,0,1-.87.13,3.47,3.47,0,0,1-1.34-.25,2.5,2.5,0,0,1-1-.86Z"/><path class="cls-1" d="M179.52,64.53l-2.7-4.18h.83l2.22,3.48,2.27-3.48h.77l-2.7,4.18V67.7h-.69Z"/><path class="cls-1" d="M184.05,66.33a1.69,1.69,0,0,0,.7.7,2.08,2.08,0,0,0,1,.23,2.27,2.27,0,0,0,.65-.1,1.75,1.75,0,0,0,.52-.29,1.31,1.31,0,0,0,.35-.46,1.25,1.25,0,0,0,.13-.59,1.15,1.15,0,0,0-.16-.64,1.41,1.41,0,0,0-.43-.41,3.12,3.12,0,0,0-.61-.27l-.69-.23c-.24-.08-.47-.16-.7-.26a2.35,2.35,0,0,1-.6-.38,1.66,1.66,0,0,1-.44-.59,2.18,2.18,0,0,1-.16-.87,1.85,1.85,0,0,1,.2-.86,1.71,1.71,0,0,1,.52-.64,2,2,0,0,1,.75-.38,2.9,2.9,0,0,1,.89-.13,3,3,0,0,1,1.12.21,2.12,2.12,0,0,1,.88.71l-.59.43a1.68,1.68,0,0,0-.61-.55,1.74,1.74,0,0,0-.82-.18,2.18,2.18,0,0,0-.63.09,1.54,1.54,0,0,0-.53.26,1.26,1.26,0,0,0-.36.43,1.31,1.31,0,0,0-.13.61,1.18,1.18,0,0,0,.28.85,2.05,2.05,0,0,0,.7.47,8.83,8.83,0,0,0,.91.3,4.37,4.37,0,0,1,.92.34,2,2,0,0,1,.7.61,1.87,1.87,0,0,1,.28,1.08,1.93,1.93,0,0,1-.19.88,2,2,0,0,1-.5.65,2.35,2.35,0,0,1-.73.4,2.82,2.82,0,0,1-.87.13,3.47,3.47,0,0,1-1.34-.25,2.5,2.5,0,0,1-1-.86Z"/><path class="cls-1" d="M191.25,61h-2.51v-.62h5.71V61h-2.51V67.7h-.69Z"/><path class="cls-1" d="M195.58,60.35h4.5V61h-3.81v2.61h3.57v.63h-3.57v2.86h4v.63h-4.66Z"/><path class="cls-1" d="M201.67,60.35h1l2.68,6.16,2.68-6.16h1V67.7h-.69V61.22h0l-2.8,6.48h-.3l-2.85-6.48h0V67.7h-.68Z"/><path class="cls-1" d="M211.17,66.33a1.69,1.69,0,0,0,.7.7,2.06,2.06,0,0,0,1,.23,2.2,2.2,0,0,0,.64-.1,1.8,1.8,0,0,0,.53-.29,1.6,1.6,0,0,0,.35-.46,1.38,1.38,0,0,0,.13-.59,1.24,1.24,0,0,0-.16-.64,1.41,1.41,0,0,0-.43-.41,3.41,3.41,0,0,0-.61-.27l-.7-.23a7,7,0,0,1-.69-.26,2.24,2.24,0,0,1-.61-.38,1.64,1.64,0,0,1-.43-.59,2,2,0,0,1-.16-.87,1.84,1.84,0,0,1,.19-.86,1.81,1.81,0,0,1,.52-.64,2.21,2.21,0,0,1,.75-.38,3,3,0,0,1,.9-.13,2.89,2.89,0,0,1,1.11.21,2.15,2.15,0,0,1,.89.71l-.59.43a1.85,1.85,0,0,0-.61-.55,1.78,1.78,0,0,0-.83-.18,2.18,2.18,0,0,0-.63.09,1.5,1.5,0,0,0-.52.26,1.26,1.26,0,0,0-.36.43,1.31,1.31,0,0,0-.14.61,1.22,1.22,0,0,0,.28.85,2.1,2.1,0,0,0,.71.47,8.83,8.83,0,0,0,.91.3,4.28,4.28,0,0,1,.91.34,2,2,0,0,1,.7.61,1.8,1.8,0,0,1,.28,1.08,2.07,2.07,0,0,1-.18.88,2.16,2.16,0,0,1-.51.65,2.24,2.24,0,0,1-.73.4,2.76,2.76,0,0,1-.86.13,3.44,3.44,0,0,1-1.34-.25,2.46,2.46,0,0,1-1.05-.86Z"/><rect class="cls-1" x="78.42" y="0.78" width="5.54" height="38.14"/><path class="cls-1" d="M98.21,24.64V38.93H93.27V.7h10.86q6.2,0,9.61,3c2.28,2,3.42,4.83,3.42,8.54a11.52,11.52,0,0,1-4,9.11,13.92,13.92,0,0,1-10,3.3Zm0-19.59V24.64l4.56-4.34q4.52,0,6.86-2A7.32,7.32,0,0,0,112,12.42q0-7.36-8.73-7.37Z"/><path class="cls-1" d="M155.53,38.93V.7h10.9a21.12,21.12,0,0,1,14.45,5.06q5.76,5.06,5.76,13.57,0,8.88-5.76,14.24T166,38.93Zm4.93-33.84V38.93L166,34.56c4.86,0,8.64-1.33,11.37-4s4.08-6.36,4.08-11.13-1.4-8.36-4.19-10.76-6.48-3.61-11-3.61Z"/><path class="cls-1" d="M192.27,31.3a13.56,13.56,0,0,0,4.67,2.43,17.93,17.93,0,0,0,5.57,1q8,0,8-5.53a4.78,4.78,0,0,0-.86-2.79,8.14,8.14,0,0,0-2.37-2.2q-1.5-.95-5.64-2.93-5.73-2.76-7.56-5.13a8.69,8.69,0,0,1-1.82-5.42,8.45,8.45,0,0,1,3.82-7.29A16.25,16.25,0,0,1,205.74.7q5.69,0,8.35,1.34V7.23a15.36,15.36,0,0,0-8.72-2.31,10.34,10.34,0,0,0-5.7,1.42,4.45,4.45,0,0,0-2.21,3.94A4.73,4.73,0,0,0,199,13.93a30.92,30.92,0,0,0,6.62,3.83q5.63,2.61,7.86,5.2a8.68,8.68,0,0,1,2.24,5.84,8.6,8.6,0,0,1-3.64,7.46q-3.65,2.6-10.12,2.6a27.61,27.61,0,0,1-5.29-.61,12.89,12.89,0,0,1-4.39-1.52Z"/><path class="cls-1" d="M135.44.7h-5.28L115.6,38.93h5.45L132,8.25a14.46,14.46,0,0,0,.62-2.66h.12a17.54,17.54,0,0,0,.59,2.66l11.21,30.68H150Z"/><polygon class="cls-1" points="32.32 15.83 36.79 1.98 32.32 0.54 32.32 1.05 32.32 15.83"/><polygon class="cls-1" points="30.32 1.05 24.58 1.05 24.58 20.3 30.82 20.3 30.82 1.05 30.32 1.05"/><polygon class="cls-1" points="7.94 24.65 7.94 39.59 12.47 25.59 7.94 24.12 7.94 24.65"/><rect class="cls-1" x="-3.18" y="6.93" width="19.25" height="6.44" transform="translate(-5.19 13.16) rotate(-72.1)"/><polygon class="cls-1" points="6.44 43.9 6.44 43.87 6.44 24.65 0 24.65 0 43.9 6.44 43.9"/><rect class="cls-1" x="45.47" y="6.93" width="19.25" height="6.44" transform="translate(28.5 59.46) rotate(-72.1)"/><rect class="cls-1" x="-3.18" y="54.13" width="19.25" height="6.44" transform="translate(-50.12 45.87) rotate(-72.11)"/><rect class="cls-1" x="21.3" y="30.53" width="19.25" height="6.44" transform="translate(-10.7 52.81) rotate(-72.1)"/><polygon class="cls-1" points="56.69 47.76 56.69 48.18 56.69 62.88 61.12 49.19 56.69 47.76"/><rect class="cls-1" x="21.3" y="54.13" width="19.25" height="6.44" transform="translate(-33.16 69.16) rotate(-72.11)"/><polygon class="cls-1" points="48.75 67.43 54.96 67.43 55.19 67.43 55.19 48.18 54.67 48.18 48.75 48.18 48.75 67.43"/><rect class="cls-1" x="45.47" y="30.53" width="19.25" height="6.44" transform="translate(6.04 75.81) rotate(-72.1)"/></g></g></svg>